<mxfile host="Electron" modified="2024-01-09T18:56:39.804Z" agent="Mozilla/5.0 (Windows NT 10.0; Win64; x64) AppleWebKit/537.36 (KHTML, like Gecko) draw.io/22.1.16 Chrome/120.0.6099.109 Electron/28.1.0 Safari/537.36" etag="vnYflIU-1eK2Anjg51xA" version="22.1.16" type="device">
  <diagram name="Page-1" id="ojZs6oeKGVltMjRj_HcY">
    <mxGraphModel dx="1373" dy="766" grid="1" gridSize="10" guides="1" tooltips="1" connect="1" arrows="1" fold="1" page="1" pageScale="1" pageWidth="1920" pageHeight="1200" math="0" shadow="0">
      <root>
        <mxCell id="0" />
        <mxCell id="1" parent="0" />
        <mxCell id="wm7MlkFv3_hdpK5SzSn3-28" value="" style="rounded=0;whiteSpace=wrap;html=1;strokeColor=none;fillColor=#eee8d5;movable=0;resizable=0;rotatable=0;deletable=0;editable=0;locked=1;connectable=0;" vertex="1" parent="1">
          <mxGeometry y="530" width="1120" height="670" as="geometry" />
        </mxCell>
        <mxCell id="wm7MlkFv3_hdpK5SzSn3-31" value="" style="rounded=0;whiteSpace=wrap;html=1;strokeColor=none;fillColor=#fffbe4;movable=0;resizable=0;rotatable=0;deletable=0;editable=0;locked=1;connectable=0;" vertex="1" parent="1">
          <mxGeometry x="30" y="1070" width="530" height="110" as="geometry" />
        </mxCell>
        <mxCell id="wm7MlkFv3_hdpK5SzSn3-30" value="" style="rounded=0;whiteSpace=wrap;html=1;strokeColor=none;fillColor=#fffbe4;movable=1;resizable=1;rotatable=1;deletable=1;editable=1;locked=0;connectable=1;" vertex="1" parent="1">
          <mxGeometry x="30" y="940" width="530" height="110" as="geometry" />
        </mxCell>
        <mxCell id="wm7MlkFv3_hdpK5SzSn3-4" value="" style="shape=image;verticalLabelPosition=bottom;labelBackgroundColor=default;verticalAlign=top;aspect=fixed;imageAspect=0;image=data:image/svg+xml,PHN2ZyB4bWxucz0iaHR0cDovL3d3dy53My5vcmcvMjAwMC9zdmciIHZpZXdCb3g9IjAgMCA2NDAgNTEyIj48cGF0aCBkPSJNNjI0IDM2OGgtNDhWOTZjMC0zNS4zLTI4LjcyLTY0LTY0LTY0SDEyOGMtMzUuMjggMC02NCAyOC43LTY0IDY0djI3MkgxNmMtOC44NCAwLTE2IDcuMTYtMTYgMTZ2NDhjMCA0NC4xMSAzNS44OCA4MCA4MCA4MGg0ODBjNDQuMTIgMCA4MC0zNS44OSA4MC04MHYtNDhjMC04Ljg0LTcuMTYtMTYtMTYtMTZ6TTk2IDk2YzAtMTcuNjcgMTQuMzMtMzIgMzItMzJoMzg0YzE3LjY3IDAgMzIgMTQuMzMgMzIgMzJ2MjcySDM5MS4xM2MtNC4wNiAwLTcuMDIgMy4xMy03LjkyIDcuMDlDMzc5Ljk4IDM4OS4zNSAzNjcuMjMgNDAwIDM1MiA0MDBoLTY0Yy0xNS4yMyAwLTI3Ljk4LTEwLjY1LTMxLjIxLTI0LjkxLS45LTMuOTYtMy44Ni03LjA5LTcuOTItNy4wOUg5NlY5NnptNTEyIDMzNmMwIDI2LjQ3LTIxLjUzIDQ4LTQ4IDQ4SDgwYy0yNi40NyAwLTQ4LTIxLjUzLTQ4LTQ4di0zMmgxOTQuNzVjNi41OSAxOC42MiAyNC4zOCAzMiA0NS4yNSAzMmg5NmMyMC44OCAwIDM4LjY2LTEzLjM4IDQ1LjI1LTMySDYwOHYzMnoiLz48L3N2Zz4=;" vertex="1" parent="1">
          <mxGeometry x="10" y="920" width="50" height="40" as="geometry" />
        </mxCell>
        <mxCell id="wm7MlkFv3_hdpK5SzSn3-8" value="" style="ellipse;shape=cloud;whiteSpace=wrap;html=1;fillColor=#268bd2;strokeColor=none;" vertex="1" parent="1">
          <mxGeometry x="10" y="830" width="1100" height="80" as="geometry" />
        </mxCell>
        <mxCell id="wm7MlkFv3_hdpK5SzSn3-32" value="" style="shape=image;verticalLabelPosition=bottom;labelBackgroundColor=default;verticalAlign=top;aspect=fixed;imageAspect=0;image=data:image/svg+xml,PHN2ZyB4bWxucz0iaHR0cDovL3d3dy53My5vcmcvMjAwMC9zdmciIHZpZXdCb3g9IjAgMCAyNCAyNCIgaGVpZ2h0PSIyNCIgd2lkdGg9IjI0Ij48cGF0aCBkPSJNMyAyLjc1QTIuNzUgMi43NSAwIDAgMSA1Ljc1IDBoMTQuNWEuNzUuNzUgMCAwIDEgLjc1Ljc1djIwLjVhLjc1Ljc1IDAgMCAxLS43NS43NWgtNmEuNzUuNzUgMCAwIDEgMC0xLjVoNS4yNXYtNEg2QTEuNSAxLjUgMCAwIDAgNC41IDE4di43NWMwIC43MTYuNDMgMS4zMzQgMS4wNSAxLjYwNWEuNzUuNzUgMCAwIDEtLjYgMS4zNzRBMy4yNTEgMy4yNTEgMCAwIDEgMyAxOC43NVpNMTkuNSAxLjVINS43NWMtLjY5IDAtMS4yNS41Ni0xLjI1IDEuMjV2MTIuNjUxQTIuOTg5IDIuOTg5IDAgMCAxIDYgMTVoMTMuNVoiLz48cGF0aCBkPSJNNyAxOC4yNWEuMjUuMjUgMCAwIDEgLjI1LS4yNWg1YS4yNS4yNSAwIDAgMSAuMjUuMjV2NS4wMWEuMjUuMjUgMCAwIDEtLjM5Ny4yMDFsLTIuMjA2LTEuNjA0YS4yNS4yNSAwIDAgMC0uMjk0IDBMNy4zOTcgMjMuNDZhLjI1LjI1IDAgMCAxLS4zOTctLjJ2LTUuMDFaIi8+PC9zdmc+;" vertex="1" parent="1">
          <mxGeometry x="521" y="953" width="24" height="24" as="geometry" />
        </mxCell>
        <mxCell id="wm7MlkFv3_hdpK5SzSn3-33" value="" style="shape=image;verticalLabelPosition=bottom;labelBackgroundColor=default;verticalAlign=top;aspect=fixed;imageAspect=0;image=data:image/svg+xml,PHN2ZyB4bWxucz0iaHR0cDovL3d3dy53My5vcmcvMjAwMC9zdmciIHZpZXdCb3g9IjAgMCAyNCAyNCIgaGVpZ2h0PSIyNCIgd2lkdGg9IjI0Ij48cGF0aCBkPSJNMyAyLjc1QTIuNzUgMi43NSAwIDAgMSA1Ljc1IDBoMTQuNWEuNzUuNzUgMCAwIDEgLjc1Ljc1djIwLjVhLjc1Ljc1IDAgMCAxLS43NS43NWgtNmEuNzUuNzUgMCAwIDEgMC0xLjVoNS4yNXYtNEg2QTEuNSAxLjUgMCAwIDAgNC41IDE4di43NWMwIC43MTYuNDMgMS4zMzQgMS4wNSAxLjYwNWEuNzUuNzUgMCAwIDEtLjYgMS4zNzRBMy4yNTEgMy4yNTEgMCAwIDEgMyAxOC43NVpNMTkuNSAxLjVINS43NWMtLjY5IDAtMS4yNS41Ni0xLjI1IDEuMjV2MTIuNjUxQTIuOTg5IDIuOTg5IDAgMCAxIDYgMTVoMTMuNVoiLz48cGF0aCBkPSJNNyAxOC4yNWEuMjUuMjUgMCAwIDEgLjI1LS4yNWg1YS4yNS4yNSAwIDAgMSAuMjUuMjV2NS4wMWEuMjUuMjUgMCAwIDEtLjM5Ny4yMDFsLTIuMjA2LTEuNjA0YS4yNS4yNSAwIDAgMC0uMjk0IDBMNy4zOTcgMjMuNDZhLjI1LjI1IDAgMCAxLS4zOTctLjJ2LTUuMDFaIi8+PC9zdmc+;" vertex="1" parent="1">
          <mxGeometry x="521" y="1080" width="24" height="24" as="geometry" />
        </mxCell>
        <mxCell id="wm7MlkFv3_hdpK5SzSn3-34" value="library" style="text;html=1;strokeColor=none;fillColor=none;align=center;verticalAlign=middle;whiteSpace=wrap;rounded=0;" vertex="1" parent="1">
          <mxGeometry x="451" y="1080" width="60" height="30" as="geometry" />
        </mxCell>
        <mxCell id="wm7MlkFv3_hdpK5SzSn3-35" value="process" style="text;html=1;strokeColor=none;fillColor=none;align=center;verticalAlign=middle;whiteSpace=wrap;rounded=0;" vertex="1" parent="1">
          <mxGeometry x="459" y="950" width="60" height="30" as="geometry" />
        </mxCell>
        <mxCell id="wm7MlkFv3_hdpK5SzSn3-38" style="edgeStyle=orthogonalEdgeStyle;rounded=0;orthogonalLoop=1;jettySize=auto;html=1;" edge="1" parent="1" source="wm7MlkFv3_hdpK5SzSn3-36" target="wm7MlkFv3_hdpK5SzSn3-37">
          <mxGeometry relative="1" as="geometry" />
        </mxCell>
        <mxCell id="wm7MlkFv3_hdpK5SzSn3-36" value="cloneÂ repo Process Frozen Chlorine" style="shape=image;verticalLabelPosition=bottom;labelBackgroundColor=none;verticalAlign=top;aspect=fixed;imageAspect=0;image=data:image/svg+xml,PHN2ZyB4bWxucz0iaHR0cDovL3d3dy53My5vcmcvMjAwMC9zdmciIHZpZXdCb3g9IjAgMCAyNCAyNCIgaGVpZ2h0PSIyNCIgd2lkdGg9IjI0Ij48cGF0aCBkPSJNNC4zNzUuMzc1YTIuNSAyLjUgMCAwIDAtMi41IDIuNXYxNS4yNWEyLjUgMi41IDAgMCAwIDIuNSAyLjVoNS4xODdhLjc1Ljc1IDAgMSAwIDAtMS41SDQuMzc1YTEgMSAwIDAgMS0xLTF2LTEuNzVhMSAxIDAgMCAxIDEtMWg1LjY4N2EuNzUuNzUgMCAxIDAgMC0xLjVINC4zNzVjLS4zNTYgMC0uNjk0LjA3NC0xIC4yMDhWMi44NzVhMSAxIDAgMCAxIDEtMWgxMy4yNXY1LjI1YS43NS43NSAwIDAgMCAxLjUgMHYtNmEuNzUuNzUgMCAwIDAtLjc1LS43NWgtMTRaIi8+PHBhdGggZD0iTTEyLjM3NSAxMi4wODdjMC0xLjM5NiAxLjAwNS0yLjcxMiAyLjQ1Ni0yLjcxMmg4LjA0NGEuNzUuNzUgMCAwIDEgLjc1Ljc1djEyLjc1YS43NS43NSAwIDAgMS0uNzUuNzVoLTcuNWEzIDMgMCAwIDEtMy0zWm05Ljc1IDUuNTM4di02Ljc1aC03LjI5NGMtLjQzMyAwLS45NTYuNDQxLS45NTYgMS4yMTJ2NS45MzlhMi45ODkgMi45ODkgMCAwIDEgMS41LS40MDFabS04LjI1IDNhMS41IDEuNSAwIDAgMCAxLjUgMS41aDYuNzV2LTNoLTYuNzVhMS41IDEuNSAwIDAgMC0xLjUgMS41WiIvPjwvc3ZnPg==;whiteSpace=wrap;" vertex="1" parent="1">
          <mxGeometry x="70" y="960" width="24" height="24" as="geometry" />
        </mxCell>
        <mxCell id="wm7MlkFv3_hdpK5SzSn3-40" style="edgeStyle=orthogonalEdgeStyle;rounded=0;orthogonalLoop=1;jettySize=auto;html=1;entryX=0;entryY=0.5;entryDx=0;entryDy=0;" edge="1" parent="1" source="wm7MlkFv3_hdpK5SzSn3-37" target="wm7MlkFv3_hdpK5SzSn3-39">
          <mxGeometry relative="1" as="geometry" />
        </mxCell>
        <mxCell id="wm7MlkFv3_hdpK5SzSn3-37" value="create branch DevJoe" style="shape=image;verticalLabelPosition=bottom;labelBackgroundColor=none;verticalAlign=top;aspect=fixed;imageAspect=0;image=data:image/svg+xml,PHN2ZyB4bWxucz0iaHR0cDovL3d3dy53My5vcmcvMjAwMC9zdmciIHZpZXdCb3g9IjAgMCAyNCAyNCIgaGVpZ2h0PSIyNCIgd2lkdGg9IjI0Ij48cGF0aCBkPSJNMTUgNC43NWEzLjI1IDMuMjUgMCAxIDEgNi41IDAgMy4yNSAzLjI1IDAgMCAxLTYuNSAwWk0yLjUgMTkuMjVhMy4yNSAzLjI1IDAgMSAxIDYuNSAwIDMuMjUgMy4yNSAwIDAgMS02LjUgMFptMC0xNC41YTMuMjUgMy4yNSAwIDEgMSA2LjUgMCAzLjI1IDMuMjUgMCAwIDEtNi41IDBaTTUuNzUgNi41YTEuNzUgMS43NSAwIDEgMC0uMDAxLTMuNTAxQTEuNzUgMS43NSAwIDAgMCA1Ljc1IDYuNVptMCAxNC41YTEuNzUgMS43NSAwIDEgMC0uMDAxLTMuNTAxQTEuNzUgMS43NSAwIDAgMCA1Ljc1IDIxWm0xMi41LTE0LjVhMS43NSAxLjc1IDAgMSAwLS4wMDEtMy41MDFBMS43NSAxLjc1IDAgMCAwIDE4LjI1IDYuNVoiLz48cGF0aCBkPSJNNS43NSAxNi43NUEuNzUuNzUgMCAwIDEgNSAxNlY4YS43NS43NSAwIDAgMSAxLjUgMHY4YS43NS43NSAwIDAgMS0uNzUuNzVaIi8+PHBhdGggZD0iTTE3LjUgOC43NXYtMUgxOXYxYTMuNzUgMy43NSAwIDAgMS0zLjc1IDMuNzVoLTdhMS43NSAxLjc1IDAgMCAwLTEuNzUgMS43NUg1QTMuMjUgMy4yNSAwIDAgMSA4LjI1IDExaDdhMi4yNSAyLjI1IDAgMCAwIDIuMjUtMi4yNVoiLz48L3N2Zz4=;whiteSpace=wrap;" vertex="1" parent="1">
          <mxGeometry x="130" y="960" width="24" height="24" as="geometry" />
        </mxCell>
        <mxCell id="wm7MlkFv3_hdpK5SzSn3-43" style="edgeStyle=orthogonalEdgeStyle;rounded=0;orthogonalLoop=1;jettySize=auto;html=1;" edge="1" parent="1" source="wm7MlkFv3_hdpK5SzSn3-39" target="wm7MlkFv3_hdpK5SzSn3-42">
          <mxGeometry relative="1" as="geometry" />
        </mxCell>
        <mxCell id="wm7MlkFv3_hdpK5SzSn3-39" value="write code" style="shape=image;verticalLabelPosition=bottom;labelBackgroundColor=none;verticalAlign=top;aspect=fixed;imageAspect=0;image=data:image/svg+xml,PHN2ZyB4bWxucz0iaHR0cDovL3d3dy53My5vcmcvMjAwMC9zdmciIHZpZXdCb3g9IjAgMCAyNCAyNCIgaGVpZ2h0PSIyNCIgd2lkdGg9IjI0Ij48cGF0aCBkPSJNMyAzYTIgMiAwIDAgMSAyLTJoOS45ODJhMiAyIDAgMCAxIDEuNDE0LjU4Nmw0LjAxOCA0LjAxOEEyIDIgMCAwIDEgMjEgNy4wMThWMjFhMiAyIDAgMCAxLTIgMkg0Ljc1YS43NS43NSAwIDAgMSAwLTEuNUgxOWEuNS41IDAgMCAwIC41LS41VjguNWgtNGEyIDIgMCAwIDEtMi0ydi00SDVhLjUuNSAwIDAgMC0uNS41djYuMjVhLjc1Ljc1IDAgMCAxLTEuNSAwWm0xMi0uNXY0YS41LjUgMCAwIDAgLjUuNWg0YS41LjUgMCAwIDAtLjE0Ni0uMzM2bC00LjAxOC00LjAxOEEuNS41IDAgMCAwIDE1IDIuNVoiLz48cGF0aCBkPSJNNC41MyAxMi4yNGEuNzUuNzUgMCAwIDEtLjAzOSAxLjA2bC0yLjYzOSAyLjQ1IDIuNjQgMi40NWEuNzUuNzUgMCAxIDEtMS4wMjIgMS4xbC0zLjIzLTNhLjc1Ljc1IDAgMCAxIDAtMS4xbDMuMjMtM2EuNzUuNzUgMCAwIDEgMS4wNi4wNFptMy45NzkgMS4wNmEuNzUuNzUgMCAxIDEgMS4wMi0xLjFsMy4yMzEgM2EuNzUuNzUgMCAwIDEgMCAxLjFsLTMuMjMgM2EuNzUuNzUgMCAxIDEtMS4wMjEtMS4xbDIuNjM5LTIuNDUtMi42NC0yLjQ1WiIvPjwvc3ZnPg==;whiteSpace=wrap;" vertex="1" parent="1">
          <mxGeometry x="196" y="960" width="24" height="24" as="geometry" />
        </mxCell>
        <mxCell id="wm7MlkFv3_hdpK5SzSn3-45" style="edgeStyle=orthogonalEdgeStyle;rounded=0;orthogonalLoop=1;jettySize=auto;html=1;entryX=0;entryY=0.5;entryDx=0;entryDy=0;" edge="1" parent="1" source="wm7MlkFv3_hdpK5SzSn3-42" target="wm7MlkFv3_hdpK5SzSn3-44">
          <mxGeometry relative="1" as="geometry" />
        </mxCell>
        <mxCell id="wm7MlkFv3_hdpK5SzSn3-42" value="codescan Workflow Analyzer" style="shape=image;verticalLabelPosition=bottom;labelBackgroundColor=none;verticalAlign=top;aspect=fixed;imageAspect=0;image=data:image/svg+xml,PHN2ZyB4bWxucz0iaHR0cDovL3d3dy53My5vcmcvMjAwMC9zdmciIHZpZXdCb3g9IjAgMCAyNCAyNCIgaGVpZ2h0PSIyNCIgd2lkdGg9IjI0Ij48cGF0aCBkPSJNMTEuOTcgNi45N2EuNzUuNzUgMCAwIDAgMCAxLjA2bDIuNDcgMi40Ny0yLjQ3IDIuNDdhLjc1Ljc1IDAgMSAwIDEuMDYgMS4wNmwzLTNhLjc1Ljc1IDAgMCAwIDAtMS4wNmwtMy0zYS43NS43NSAwIDAgMC0xLjA2IDBaTTkuMDMgOC4wM2EuNzUuNzUgMCAwIDAtMS4wNi0xLjA2bC0zIDNhLjc1Ljc1IDAgMCAwIDAgMS4wNmwzIDNhLjc1Ljc1IDAgMCAwIDEuMDYtMS4wNkw2LjU2IDEwLjVsMi40Ny0yLjQ3WiIvPjxwYXRoIGQ9Ik0xMC41IDBDMTYuMjk5IDAgMjEgNC43MDEgMjEgMTAuNWExMC40NTcgMTAuNDU3IDAgMCAxLTIuNTY0IDYuODc1bDQuMzQ0IDQuMzQ1YS43NDkuNzQ5IDAgMCAxLS4zMjYgMS4yNzUuNzQ5Ljc0OSAwIDAgMS0uNzM0LS4yMTVsLTQuMzQ1LTQuMzQ0QTEwLjQ1OSAxMC40NTkgMCAwIDEgMTAuNSAyMUM0LjcwMSAyMSAwIDE2LjI5OSAwIDEwLjVTNC43MDEgMCAxMC41IDBabS05IDEwLjVhOSA5IDAgMCAwIDkgOSA5IDkgMCAwIDAgOS05IDkgOSAwIDAgMC05LTkgOSA5IDAgMCAwLTkgOVoiLz48L3N2Zz4=;whiteSpace=wrap;" vertex="1" parent="1">
          <mxGeometry x="260" y="960" width="24" height="24" as="geometry" />
        </mxCell>
        <mxCell id="wm7MlkFv3_hdpK5SzSn3-44" value="push own branch" style="shape=image;verticalLabelPosition=bottom;labelBackgroundColor=none;verticalAlign=top;aspect=fixed;imageAspect=0;image=data:image/svg+xml,PHN2ZyB4bWxucz0iaHR0cDovL3d3dy53My5vcmcvMjAwMC9zdmciIHZpZXdCb3g9IjAgMCAyNCAyNCIgaGVpZ2h0PSIyNCIgd2lkdGg9IjI0Ij48cGF0aCBkPSJNNC43NSAwQTIuNzUgMi43NSAwIDAgMCAyIDIuNzV2MTYuNUEyLjc1IDIuNzUgMCAwIDAgNC43NSAyMmgxMWEuNzUuNzUgMCAwIDAgMC0xLjVoLTExYy0uNjkgMC0xLjI1LS41Ni0xLjI1LTEuMjVWMThBMS41IDEuNSAwIDAgMSA1IDE2LjVoNy4yNWEuNzUuNzUgMCAwIDAgMC0xLjVINWMtLjU0NiAwLTEuMDU5LjE0Ni0xLjUuNDAxVjIuNzVjMC0uNjkuNTYtMS4yNSAxLjI1LTEuMjVIMTguNXY3YS43NS43NSAwIDAgMCAxLjUgMFYuNzVhLjc1Ljc1IDAgMCAwLS43NS0uNzVINC43NVoiLz48cGF0aCBkPSJtMjAgMTMuOTAzIDIuMjAyIDIuMzU5YS43NS43NSAwIDAgMCAxLjA5Ni0xLjAyNGwtMy41LTMuNzVhLjc1Ljc1IDAgMCAwLTEuMDk2IDBsLTMuNSAzLjc1YS43NS43NSAwIDEgMCAxLjA5NiAxLjAyNGwyLjIwMi0yLjM2djkuMzQ4YS43NS43NSAwIDAgMCAxLjUgMHYtOS4zNDdaIi8+PC9zdmc+;whiteSpace=wrap;" vertex="1" parent="1">
          <mxGeometry x="336" y="960" width="24" height="24" as="geometry" />
        </mxCell>
        <mxCell id="wm7MlkFv3_hdpK5SzSn3-47" value="" style="rounded=0;whiteSpace=wrap;html=1;strokeColor=none;fillColor=#dadada;movable=0;resizable=0;rotatable=0;deletable=0;editable=0;locked=1;connectable=0;" vertex="1" parent="1">
          <mxGeometry x="20" y="560" width="530" height="260" as="geometry" />
        </mxCell>
        <mxCell id="wm7MlkFv3_hdpK5SzSn3-48" value="" style="rounded=0;whiteSpace=wrap;html=1;strokeColor=none;fillColor=#E0E0E0;movable=0;resizable=0;rotatable=0;deletable=0;editable=0;locked=1;connectable=0;" vertex="1" parent="1">
          <mxGeometry x="580" y="560" width="530" height="260" as="geometry" />
        </mxCell>
        <mxCell id="wm7MlkFv3_hdpK5SzSn3-11" value="" style="shape=image;verticalLabelPosition=bottom;labelBackgroundColor=default;verticalAlign=top;aspect=fixed;imageAspect=0;image=data:image/svg+xml,PHN2ZyB4bWxucz0iaHR0cDovL3d3dy53My5vcmcvMjAwMC9zdmciIHZpZXdCb3g9IjAgMCAyNCAyNCIgaGVpZ2h0PSIyNCIgd2lkdGg9IjI0Ij48cGF0aCBkPSJNNi4yNSAxMmEuNzUuNzUgMCAwIDAgMCAxLjVoLjVhLjc1Ljc1IDAgMCAwIDAtMS41aC0uNVpNNS41IDkuMjVhLjc1Ljc1IDAgMCAxIC43NS0uNzVoLjVhLjc1Ljc1IDAgMCAxIDAgMS41aC0uNWEuNzUuNzUgMCAwIDEtLjc1LS43NVpNNi4yNSA1YS43NS43NSAwIDAgMCAwIDEuNWguNWEuNzUuNzUgMCAwIDAgMC0xLjVoLS41Wk05IDEyLjc1YS43NS43NSAwIDAgMSAuNzUtLjc1aC41YS43NS43NSAwIDAgMSAwIDEuNWgtLjVhLjc1Ljc1IDAgMCAxLS43NS0uNzVabS43NS00LjI1YS43NS43NSAwIDAgMCAwIDEuNWguNWEuNzUuNzUgMCAwIDAgMC0xLjVoLS41Wk05IDUuNzVBLjc1Ljc1IDAgMCAxIDkuNzUgNWguNWEuNzUuNzUgMCAwIDEgMCAxLjVoLS41QS43NS43NSAwIDAgMSA5IDUuNzVaTTEzLjI1IDEyYS43NS43NSAwIDAgMCAwIDEuNWguNWEuNzUuNzUgMCAwIDAgMC0xLjVoLS41Wm0tLjc1LTIuNzVhLjc1Ljc1IDAgMCAxIC43NS0uNzVoLjVhLjc1Ljc1IDAgMCAxIDAgMS41aC0uNWEuNzUuNzUgMCAwIDEtLjc1LS43NVpNMTMuMjUgNWEuNzUuNzUgMCAwIDAgMCAxLjVoLjVhLjc1Ljc1IDAgMCAwIDAtMS41aC0uNVoiLz48cGF0aCBkPSJNMiAyMFYzYTIgMiAwIDAgMSAyLTJoMTJhMiAyIDAgMCAxIDIgMnYxN2MwIC4xNzMtLjAyMi4zNC0uMDYzLjVIMjBhLjUuNSAwIDAgMCAuNS0uNXYtOGEuNS41IDAgMCAwLS4yLS40bC0uNS0uMzc1YS43NS43NSAwIDAgMSAuOS0xLjJsLjUuMzc1Yy41MDQuMzc4LjguOTcuOCAxLjZ2OGEyIDIgMCAwIDEtMiAyaC0zLjU2MmEuNzY3Ljc2NyAwIDAgMS0uMTY2LS4wMThjLS4wODkuMDEyLS4xOC4wMTgtLjI3Mi4wMThoLTMuNzVhLjc1Ljc1IDAgMCAxLS43NS0uNzVWMTloLTN2Mi4yNWEuNzUuNzUgMCAwIDEtLjc1Ljc1SDRhMiAyIDAgMCAxLTItMlptMiAuNWgzdi0yLjI1YS43NS43NSAwIDAgMSAuNzUtLjc1aDQuNWEuNzUuNzUgMCAwIDEgLjc1Ljc1djIuMjVoM2EuNS41IDAgMCAwIC41LS41VjNhLjUuNSAwIDAgMC0uNS0uNUg0YS41LjUgMCAwIDAtLjUuNXYxN2EuNS41IDAgMCAwIC41LjVaIi8+PC9zdmc+;" vertex="1" parent="1">
          <mxGeometry x="510" y="576" width="24" height="24" as="geometry" />
        </mxCell>
        <mxCell id="wm7MlkFv3_hdpK5SzSn3-49" value="repo templateA" style="shape=image;verticalLabelPosition=bottom;labelBackgroundColor=none;verticalAlign=top;aspect=fixed;imageAspect=0;image=data:image/svg+xml,PHN2ZyB4bWxucz0iaHR0cDovL3d3dy53My5vcmcvMjAwMC9zdmciIHZpZXdCb3g9IjAgMCAyNCAyNCIgaGVpZ2h0PSIyNCIgd2lkdGg9IjI0Ij48cGF0aCBkPSJNNS43NSAwQTIuNzUgMi43NSAwIDAgMCAzIDIuNzV2MWEuNzUuNzUgMCAwIDAgMS41IDB2LTFjMC0uNjkuNTYtMS4yNSAxLjI1LTEuMjVoMWEuNzUuNzUgMCAwIDAgMC0xLjVoLTFabTQgMGEuNzUuNzUgMCAwIDAgMCAxLjVoNC41YS43NS43NSAwIDAgMCAwLTEuNWgtNC41Wm03LjUgMGEuNzUuNzUgMCAwIDAgMCAxLjVoMi4yNXYyLjI1YS43NS43NSAwIDAgMCAxLjUgMHYtM2EuNzUuNzUgMCAwIDAtLjc1LS43NWgtM1pNNC41IDYuNWEuNzUuNzUgMCAwIDAtMS41IDB2My43NWEuNzUuNzUgMCAwIDAgMS41IDBWNi41Wm0xNi41IDBhLjc1Ljc1IDAgMCAwLTEuNSAwdjMuNzVhLjc1Ljc1IDAgMCAwIDEuNSAwVjYuNVpNNC41IDEzLjI1YS43NS43NSAwIDAgMC0xLjUgMHY1LjVhMy4yNSAzLjI1IDAgMCAwIDEuOTUgMi45OC43NS43NSAwIDEgMCAuNi0xLjM3NUExLjc1IDEuNzUgMCAwIDEgNC41IDE4Ljc1VjE4QTEuNSAxLjUgMCAwIDEgNiAxNi41aC43NWEuNzUuNzUgMCAwIDAgMC0xLjVINmMtLjU0NiAwLTEuMDU5LjE0Ni0xLjUuNDAxVjEzLjI1Wm0xNi41IDBhLjc1Ljc1IDAgMCAwLTEuNSAwVjE1aC0yLjI1YS43NS43NSAwIDAgMCAwIDEuNWgyLjI1djRoLTUuMjVhLjc1Ljc1IDAgMCAwIDAgMS41aDZhLjc1Ljc1IDAgMCAwIC43NS0uNzV2LThaTTkuNzUgMTVhLjc1Ljc1IDAgMCAwIDAgMS41aDQuNWEuNzUuNzUgMCAwIDAgMC0xLjVoLTQuNVptLTIuMzUzIDguNDYxQS4yNS4yNSAwIDAgMSA3IDIzLjI2di01LjAxYS4yNS4yNSAwIDAgMSAuMjUtLjI1aDVhLjI1LjI1IDAgMCAxIC4yNS4yNXY1LjAxYS4yNS4yNSAwIDAgMS0uMzk3LjIwMWwtMi4yMDYtMS42MDRhLjI1LjI1IDAgMCAwLS4yOTQgMEw3LjM5NyAyMy40NloiLz48L3N2Zz4=;whiteSpace=wrap;" vertex="1" parent="1">
          <mxGeometry x="60" y="590" width="24" height="24" as="geometry" />
        </mxCell>
        <mxCell id="wm7MlkFv3_hdpK5SzSn3-50" value="repo metadata" style="shape=image;verticalLabelPosition=bottom;labelBackgroundColor=none;verticalAlign=top;aspect=fixed;imageAspect=0;image=data:image/svg+xml,PHN2ZyB4bWxucz0iaHR0cDovL3d3dy53My5vcmcvMjAwMC9zdmciIHZpZXdCb3g9IjAgMCAyNCAyNCIgaGVpZ2h0PSIyNCIgd2lkdGg9IjI0Ij48cGF0aCBkPSJNMyAyLjc1QTIuNzUgMi43NSAwIDAgMSA1Ljc1IDBoMTQuNWEuNzUuNzUgMCAwIDEgLjc1Ljc1djIwLjVhLjc1Ljc1IDAgMCAxLS43NS43NWgtNmEuNzUuNzUgMCAwIDEgMC0xLjVoNS4yNXYtNEg2QTEuNSAxLjUgMCAwIDAgNC41IDE4di43NWMwIC43MTYuNDMgMS4zMzQgMS4wNSAxLjYwNWEuNzUuNzUgMCAwIDEtLjYgMS4zNzRBMy4yNTEgMy4yNTEgMCAwIDEgMyAxOC43NVpNMTkuNSAxLjVINS43NWMtLjY5IDAtMS4yNS41Ni0xLjI1IDEuMjV2MTIuNjUxQTIuOTg5IDIuOTg5IDAgMCAxIDYgMTVoMTMuNVoiLz48cGF0aCBkPSJNNyAxOC4yNWEuMjUuMjUgMCAwIDEgLjI1LS4yNWg1YS4yNS4yNSAwIDAgMSAuMjUuMjV2NS4wMWEuMjUuMjUgMCAwIDEtLjM5Ny4yMDFsLTIuMjA2LTEuNjA0YS4yNS4yNSAwIDAgMC0uMjk0IDBMNy4zOTcgMjMuNDZhLjI1LjI1IDAgMCAxLS4zOTctLjJ2LTUuMDFaIi8+PC9zdmc+;whiteSpace=wrap;" vertex="1" parent="1">
          <mxGeometry x="501" y="630" width="20" height="20" as="geometry" />
        </mxCell>
        <mxCell id="wm7MlkFv3_hdpK5SzSn3-65" style="edgeStyle=orthogonalEdgeStyle;shape=connector;curved=0;rounded=1;sketch=1;jiggle=2;curveFitting=1;orthogonalLoop=1;jettySize=auto;html=1;entryX=0.25;entryY=0;entryDx=0;entryDy=0;labelBackgroundColor=default;strokeColor=#839496;align=center;verticalAlign=middle;fontFamily=Helvetica;fontSize=11;fontColor=default;endArrow=classic;exitX=0.75;exitY=1;exitDx=0;exitDy=0;" edge="1" parent="1" source="wm7MlkFv3_hdpK5SzSn3-51" target="wm7MlkFv3_hdpK5SzSn3-61">
          <mxGeometry relative="1" as="geometry" />
        </mxCell>
        <mxCell id="wm7MlkFv3_hdpK5SzSn3-51" value="repo templateB" style="shape=image;verticalLabelPosition=bottom;labelBackgroundColor=none;verticalAlign=top;aspect=fixed;imageAspect=0;image=data:image/svg+xml,PHN2ZyB4bWxucz0iaHR0cDovL3d3dy53My5vcmcvMjAwMC9zdmciIHZpZXdCb3g9IjAgMCAyNCAyNCIgaGVpZ2h0PSIyNCIgd2lkdGg9IjI0Ij48cGF0aCBkPSJNNS43NSAwQTIuNzUgMi43NSAwIDAgMCAzIDIuNzV2MWEuNzUuNzUgMCAwIDAgMS41IDB2LTFjMC0uNjkuNTYtMS4yNSAxLjI1LTEuMjVoMWEuNzUuNzUgMCAwIDAgMC0xLjVoLTFabTQgMGEuNzUuNzUgMCAwIDAgMCAxLjVoNC41YS43NS43NSAwIDAgMCAwLTEuNWgtNC41Wm03LjUgMGEuNzUuNzUgMCAwIDAgMCAxLjVoMi4yNXYyLjI1YS43NS43NSAwIDAgMCAxLjUgMHYtM2EuNzUuNzUgMCAwIDAtLjc1LS43NWgtM1pNNC41IDYuNWEuNzUuNzUgMCAwIDAtMS41IDB2My43NWEuNzUuNzUgMCAwIDAgMS41IDBWNi41Wm0xNi41IDBhLjc1Ljc1IDAgMCAwLTEuNSAwdjMuNzVhLjc1Ljc1IDAgMCAwIDEuNSAwVjYuNVpNNC41IDEzLjI1YS43NS43NSAwIDAgMC0xLjUgMHY1LjVhMy4yNSAzLjI1IDAgMCAwIDEuOTUgMi45OC43NS43NSAwIDEgMCAuNi0xLjM3NUExLjc1IDEuNzUgMCAwIDEgNC41IDE4Ljc1VjE4QTEuNSAxLjUgMCAwIDEgNiAxNi41aC43NWEuNzUuNzUgMCAwIDAgMC0xLjVINmMtLjU0NiAwLTEuMDU5LjE0Ni0xLjUuNDAxVjEzLjI1Wm0xNi41IDBhLjc1Ljc1IDAgMCAwLTEuNSAwVjE1aC0yLjI1YS43NS43NSAwIDAgMCAwIDEuNWgyLjI1djRoLTUuMjVhLjc1Ljc1IDAgMCAwIDAgMS41aDZhLjc1Ljc1IDAgMCAwIC43NS0uNzV2LThaTTkuNzUgMTVhLjc1Ljc1IDAgMCAwIDAgMS41aDQuNWEuNzUuNzUgMCAwIDAgMC0xLjVoLTQuNVptLTIuMzUzIDguNDYxQS4yNS4yNSAwIDAgMSA3IDIzLjI2di01LjAxYS4yNS4yNSAwIDAgMSAuMjUtLjI1aDVhLjI1LjI1IDAgMCAxIC4yNS4yNXY1LjAxYS4yNS4yNSAwIDAgMS0uMzk3LjIwMWwtMi4yMDYtMS42MDRhLjI1LjI1IDAgMCAwLS4yOTQgMEw3LjM5NyAyMy40NloiLz48L3N2Zz4=;whiteSpace=wrap;" vertex="1" parent="1">
          <mxGeometry x="100" y="620" width="24" height="24" as="geometry" />
        </mxCell>
        <mxCell id="wm7MlkFv3_hdpK5SzSn3-52" value="repo templateZ" style="shape=image;verticalLabelPosition=bottom;labelBackgroundColor=none;verticalAlign=top;aspect=fixed;imageAspect=0;image=data:image/svg+xml,PHN2ZyB4bWxucz0iaHR0cDovL3d3dy53My5vcmcvMjAwMC9zdmciIHZpZXdCb3g9IjAgMCAyNCAyNCIgaGVpZ2h0PSIyNCIgd2lkdGg9IjI0Ij48cGF0aCBkPSJNNS43NSAwQTIuNzUgMi43NSAwIDAgMCAzIDIuNzV2MWEuNzUuNzUgMCAwIDAgMS41IDB2LTFjMC0uNjkuNTYtMS4yNSAxLjI1LTEuMjVoMWEuNzUuNzUgMCAwIDAgMC0xLjVoLTFabTQgMGEuNzUuNzUgMCAwIDAgMCAxLjVoNC41YS43NS43NSAwIDAgMCAwLTEuNWgtNC41Wm03LjUgMGEuNzUuNzUgMCAwIDAgMCAxLjVoMi4yNXYyLjI1YS43NS43NSAwIDAgMCAxLjUgMHYtM2EuNzUuNzUgMCAwIDAtLjc1LS43NWgtM1pNNC41IDYuNWEuNzUuNzUgMCAwIDAtMS41IDB2My43NWEuNzUuNzUgMCAwIDAgMS41IDBWNi41Wm0xNi41IDBhLjc1Ljc1IDAgMCAwLTEuNSAwdjMuNzVhLjc1Ljc1IDAgMCAwIDEuNSAwVjYuNVpNNC41IDEzLjI1YS43NS43NSAwIDAgMC0xLjUgMHY1LjVhMy4yNSAzLjI1IDAgMCAwIDEuOTUgMi45OC43NS43NSAwIDEgMCAuNi0xLjM3NUExLjc1IDEuNzUgMCAwIDEgNC41IDE4Ljc1VjE4QTEuNSAxLjUgMCAwIDEgNiAxNi41aC43NWEuNzUuNzUgMCAwIDAgMC0xLjVINmMtLjU0NiAwLTEuMDU5LjE0Ni0xLjUuNDAxVjEzLjI1Wm0xNi41IDBhLjc1Ljc1IDAgMCAwLTEuNSAwVjE1aC0yLjI1YS43NS43NSAwIDAgMCAwIDEuNWgyLjI1djRoLTUuMjVhLjc1Ljc1IDAgMCAwIDAgMS41aDZhLjc1Ljc1IDAgMCAwIC43NS0uNzV2LThaTTkuNzUgMTVhLjc1Ljc1IDAgMCAwIDAgMS41aDQuNWEuNzUuNzUgMCAwIDAgMC0xLjVoLTQuNVptLTIuMzUzIDguNDYxQS4yNS4yNSAwIDAgMSA3IDIzLjI2di01LjAxYS4yNS4yNSAwIDAgMSAuMjUtLjI1aDVhLjI1LjI1IDAgMCAxIC4yNS4yNXY1LjAxYS4yNS4yNSAwIDAgMS0uMzk3LjIwMWwtMi4yMDYtMS42MDRhLjI1LjI1IDAgMCAwLS4yOTQgMEw3LjM5NyAyMy40NloiLz48L3N2Zz4=;whiteSpace=wrap;" vertex="1" parent="1">
          <mxGeometry x="140" y="590" width="24" height="24" as="geometry" />
        </mxCell>
        <mxCell id="wm7MlkFv3_hdpK5SzSn3-57" value="" style="shape=image;verticalLabelPosition=bottom;labelBackgroundColor=default;verticalAlign=top;aspect=fixed;imageAspect=0;image=data:image/svg+xml,PHN2ZyB4bWxucz0iaHR0cDovL3d3dy53My5vcmcvMjAwMC9zdmciIHZpZXdCb3g9IjAgMCA0OTYgNTEyIj48cGF0aCBkPSJNMTY1LjkgMzk3LjRjMCAyLTIuMyAzLjYtNS4yIDMuNi0zLjMuMy01LjYtMS4zLTUuNi0zLjYgMC0yIDIuMy0zLjYgNS4yLTMuNiAzLS4zIDUuNiAxLjMgNS42IDMuNnptLTMxLjEtNC41Yy0uNyAyIDEuMyA0LjMgNC4zIDQuOSAyLjYgMSA1LjYgMCA2LjItMnMtMS4zLTQuMy00LjMtNS4yYy0yLjYtLjctNS41LjMtNi4yIDIuM3ptNDQuMi0xLjdjLTIuOS43LTQuOSAyLjYtNC42IDQuOS4zIDIgMi45IDMuMyA1LjkgMi42IDIuOS0uNyA0LjktMi42IDQuNi00LjYtLjMtMS45LTMtMy4yLTUuOS0yLjl6TTI0NC44IDhDMTA2LjEgOCAwIDExMy4zIDAgMjUyYzAgMTEwLjkgNjkuOCAyMDUuOCAxNjkuNSAyMzkuMiAxMi44IDIuMyAxNy4zLTUuNiAxNy4zLTEyLjEgMC02LjItLjMtNDAuNC0uMy02MS40IDAgMC03MCAxNS04NC43LTI5LjggMCAwLTExLjQtMjkuMS0yNy44LTM2LjYgMCAwLTIyLjktMTUuNyAxLjYtMTUuNCAwIDAgMjQuOSAyIDM4LjYgMjUuOCAyMS45IDM4LjYgNTguNiAyNy41IDcyLjkgMjAuOSAyLjMtMTYgOC44LTI3LjEgMTYtMzMuNy01NS45LTYuMi0xMTIuMy0xNC4zLTExMi4zLTExMC41IDAtMjcuNSA3LjYtNDEuMyAyMy42LTU4LjktMi42LTYuNS0xMS4xLTMzLjMgMi42LTY3LjkgMjAuOS02LjUgNjkgMjcgNjkgMjcgMjAtNS42IDQxLjUtOC41IDYyLjgtOC41czQyLjggMi45IDYyLjggOC41YzAgMCA0OC4xLTMzLjYgNjktMjcgMTMuNyAzNC43IDUuMiA2MS40IDIuNiA2Ny45IDE2IDE3LjcgMjUuOCAzMS41IDI1LjggNTguOSAwIDk2LjUtNTguOSAxMDQuMi0xMTQuOCAxMTAuNSA5LjIgNy45IDE3IDIyLjkgMTcgNDYuNCAwIDMzLjctLjMgNzUuNC0uMyA4My42IDAgNi41IDQuNiAxNC40IDE3LjMgMTIuMUM0MjguMiA0NTcuOCA0OTYgMzYyLjkgNDk2IDI1MiA0OTYgMTEzLjMgMzgzLjUgOCAyNDQuOCA4ek05Ny4yIDM1Mi45Yy0xLjMgMS0xIDMuMy43IDUuMiAxLjYgMS42IDMuOSAyLjMgNS4yIDEgMS4zLTEgMS0zLjMtLjctNS4yLTEuNi0xLjYtMy45LTIuMy01LjItMXptLTEwLjgtOC4xYy0uNyAxLjMuMyAyLjkgMi4zIDMuOSAxLjYgMSAzLjYuNyA0LjMtLjcuNy0xLjMtLjMtMi45LTIuMy0zLjktMi0uNi0zLjYtLjMtNC4zLjd6bTMyLjQgMzUuNmMtMS42IDEuMy0xIDQuMyAxLjMgNi4yIDIuMyAyLjMgNS4yIDIuNiA2LjUgMSAxLjMtMS4zLjctNC4zLTEuMy02LjItMi4yLTIuMy01LjItMi42LTYuNS0xem0tMTEuNC0xNC43Yy0xLjYgMS0xLjYgMy42IDAgNS45IDEuNiAyLjMgNC4zIDMuMyA1LjYgMi4zIDEuNi0xLjMgMS42LTMuOSAwLTYuMi0xLjQtMi4zLTQtMy4zLTUuNi0yeiIvPjwvc3ZnPg==;" vertex="1" parent="1">
          <mxGeometry x="10" y="543" width="40.69" height="42" as="geometry" />
        </mxCell>
        <mxCell id="wm7MlkFv3_hdpK5SzSn3-59" value="" style="shape=image;verticalLabelPosition=bottom;labelBackgroundColor=default;verticalAlign=top;aspect=fixed;imageAspect=0;image=data:image/svg+xml,PHN2ZyB4bWxucz0iaHR0cDovL3d3dy53My5vcmcvMjAwMC9zdmciIHZpZXdCb3g9IjAgMCA1MTIgNTEyIj48cGF0aCBkPSJNMzc2IDI1NmMwLTEzLjI1NSAxMC43NDUtMjQgMjQtMjRzMjQgMTAuNzQ1IDI0IDI0LTEwLjc0NSAyNC0yNCAyNC0yNC0xMC43NDUtMjQtMjR6bS00MCAyNGMxMy4yNTUgMCAyNC0xMC43NDUgMjQtMjRzLTEwLjc0NS0yNC0yNC0yNC0yNCAxMC43NDUtMjQgMjQgMTAuNzQ1IDI0IDI0IDI0em0xNzYtMTI4YzAgMTIuMjk2LTQuNjI5IDIzLjUwNy0xMi4yMzIgMzIgNy42MDMgOC40OTMgMTIuMjMyIDE5LjcwNCAxMi4yMzIgMzJ2ODBjMCAxMi4yOTYtNC42MjkgMjMuNTA3LTEyLjIzMiAzMiA3LjYwMyA4LjQ5MyAxMi4yMzIgMTkuNzA0IDEyLjIzMiAzMnY4MGMwIDI2LjUxLTIxLjQ5IDQ4LTQ4IDQ4SDQ4Yy0yNi41MSAwLTQ4LTIxLjQ5LTQ4LTQ4di04MGMwLTEyLjI5NiA0LjYyOS0yMy41MDcgMTIuMjMyLTMyQzQuNjI5IDMxOS41MDcgMCAzMDguMjk2IDAgMjk2di04MGMwLTEyLjI5NiA0LjYyOS0yMy41MDcgMTIuMjMyLTMyQzQuNjI5IDE3NS41MDcgMCAxNjQuMjk2IDAgMTUyVjcyYzAtMjYuNTEgMjEuNDktNDggNDgtNDhoNDE2YzI2LjUxIDAgNDggMjEuNDkgNDggNDh2ODB6bS00ODAgMGMwIDguODIyIDcuMTc4IDE2IDE2IDE2aDQxNmM4LjgyMiAwIDE2LTcuMTc4IDE2LTE2VjcyYzAtOC44MjItNy4xNzgtMTYtMTYtMTZINDhjLTguODIyIDAtMTYgNy4xNzgtMTYgMTZ2ODB6bTQzMiA0OEg0OGMtOC44MjIgMC0xNiA3LjE3OC0xNiAxNnY4MGMwIDguODIyIDcuMTc4IDE2IDE2IDE2aDQxNmM4LjgyMiAwIDE2LTcuMTc4IDE2LTE2di04MGMwLTguODIyLTcuMTc4LTE2LTE2LTE2em0xNiAxNjBjMC04LjgyMi03LjE3OC0xNi0xNi0xNkg0OGMtOC44MjIgMC0xNiA3LjE3OC0xNiAxNnY4MGMwIDguODIyIDcuMTc4IDE2IDE2IDE2aDQxNmM4LjgyMiAwIDE2LTcuMTc4IDE2LTE2di04MHptLTgwLTIyNGMxMy4yNTUgMCAyNC0xMC43NDUgMjQtMjRzLTEwLjc0NS0yNC0yNC0yNC0yNCAxMC43NDUtMjQgMjQgMTAuNzQ1IDI0IDI0IDI0em0tNjQgMGMxMy4yNTUgMCAyNC0xMC43NDUgMjQtMjRzLTEwLjc0NS0yNC0yNC0yNC0yNCAxMC43NDUtMjQgMjQgMTAuNzQ1IDI0IDI0IDI0em02NCAyNDBjLTEzLjI1NSAwLTI0IDEwLjc0NS0yNCAyNHMxMC43NDUgMjQgMjQgMjQgMjQtMTAuNzQ1IDI0LTI0LTEwLjc0NS0yNC0yNC0yNHptLTY0IDBjLTEzLjI1NSAwLTI0IDEwLjc0NS0yNCAyNHMxMC43NDUgMjQgMjQgMjQgMjQtMTAuNzQ1IDI0LTI0LTEwLjc0NS0yNC0yNC0yNHoiLz48L3N2Zz4=;" vertex="1" parent="1">
          <mxGeometry x="570" y="548" width="37" height="37" as="geometry" />
        </mxCell>
        <mxCell id="wm7MlkFv3_hdpK5SzSn3-60" value="" style="shape=image;verticalLabelPosition=bottom;labelBackgroundColor=default;verticalAlign=top;aspect=fixed;imageAspect=0;image=data:image/svg+xml,PHN2ZyB4bWxucz0iaHR0cDovL3d3dy53My5vcmcvMjAwMC9zdmciIHZpZXdCb3g9IjAgMCA2NDAgNTEyIj48cGF0aCBkPSJNNjI0IDM2OGgtNDhWOTZjMC0zNS4zLTI4LjcyLTY0LTY0LTY0SDEyOGMtMzUuMjggMC02NCAyOC43LTY0IDY0djI3MkgxNmMtOC44NCAwLTE2IDcuMTYtMTYgMTZ2NDhjMCA0NC4xMSAzNS44OCA4MCA4MCA4MGg0ODBjNDQuMTIgMCA4MC0zNS44OSA4MC04MHYtNDhjMC04Ljg0LTcuMTYtMTYtMTYtMTZ6TTk2IDk2YzAtMTcuNjcgMTQuMzMtMzIgMzItMzJoMzg0YzE3LjY3IDAgMzIgMTQuMzMgMzIgMzJ2MjcySDM5MS4xM2MtNC4wNiAwLTcuMDIgMy4xMy03LjkyIDcuMDlDMzc5Ljk4IDM4OS4zNSAzNjcuMjMgNDAwIDM1MiA0MDBoLTY0Yy0xNS4yMyAwLTI3Ljk4LTEwLjY1LTMxLjIxLTI0LjkxLS45LTMuOTYtMy44Ni03LjA5LTcuOTItNy4wOUg5NlY5NnptNTEyIDMzNmMwIDI2LjQ3LTIxLjUzIDQ4LTQ4IDQ4SDgwYy0yNi40NyAwLTQ4LTIxLjUzLTQ4LTQ4di0zMmgxOTQuNzVjNi41OSAxOC42MiAyNC4zOCAzMiA0NS4yNSAzMmg5NmMyMC44OCAwIDM4LjY2LTEzLjM4IDQ1LjI1LTMySDYwOHYzMnoiLz48L3N2Zz4=;" vertex="1" parent="1">
          <mxGeometry x="580" y="920" width="50" height="40" as="geometry" />
        </mxCell>
        <mxCell id="wm7MlkFv3_hdpK5SzSn3-64" style="edgeStyle=orthogonalEdgeStyle;rounded=1;orthogonalLoop=1;jettySize=auto;html=1;exitX=0;exitY=0.5;exitDx=0;exitDy=0;sketch=1;curveFitting=1;jiggle=2;curved=0;strokeColor=#839496;" edge="1" parent="1" source="wm7MlkFv3_hdpK5SzSn3-61" target="wm7MlkFv3_hdpK5SzSn3-36">
          <mxGeometry relative="1" as="geometry">
            <Array as="points">
              <mxPoint x="170" y="702" />
              <mxPoint x="170" y="920" />
              <mxPoint x="82" y="920" />
            </Array>
          </mxGeometry>
        </mxCell>
        <mxCell id="wm7MlkFv3_hdpK5SzSn3-71" value="trigger workflow" style="edgeStyle=orthogonalEdgeStyle;shape=connector;curved=0;rounded=1;sketch=1;jiggle=2;curveFitting=1;orthogonalLoop=1;jettySize=auto;html=1;exitX=1;exitY=0.75;exitDx=0;exitDy=0;entryX=0;entryY=0.75;entryDx=0;entryDy=0;labelBackgroundColor=none;strokeColor=#839496;align=center;verticalAlign=middle;fontFamily=Helvetica;fontSize=11;fontColor=default;endArrow=classic;" edge="1" parent="1" source="wm7MlkFv3_hdpK5SzSn3-61" target="wm7MlkFv3_hdpK5SzSn3-72">
          <mxGeometry relative="1" as="geometry" />
        </mxCell>
        <mxCell id="wm7MlkFv3_hdpK5SzSn3-61" value="repo Process Frozen Chlorine" style="shape=image;verticalLabelPosition=bottom;labelBackgroundColor=none;verticalAlign=top;aspect=fixed;imageAspect=0;image=data:image/svg+xml,PHN2ZyB4bWxucz0iaHR0cDovL3d3dy53My5vcmcvMjAwMC9zdmciIHZpZXdCb3g9IjAgMCAyNCAyNCIgaGVpZ2h0PSIyNCIgd2lkdGg9IjI0Ij48cGF0aCBkPSJNMyAyLjc1QTIuNzUgMi43NSAwIDAgMSA1Ljc1IDBoMTQuNWEuNzUuNzUgMCAwIDEgLjc1Ljc1djIwLjVhLjc1Ljc1IDAgMCAxLS43NS43NWgtNmEuNzUuNzUgMCAwIDEgMC0xLjVoNS4yNXYtNEg2QTEuNSAxLjUgMCAwIDAgNC41IDE4di43NWMwIC43MTYuNDMgMS4zMzQgMS4wNSAxLjYwNWEuNzUuNzUgMCAwIDEtLjYgMS4zNzRBMy4yNTEgMy4yNTEgMCAwIDEgMyAxOC43NVpNMTkuNSAxLjVINS43NWMtLjY5IDAtMS4yNS41Ni0xLjI1IDEuMjV2MTIuNjUxQTIuOTg5IDIuOTg5IDAgMCAxIDYgMTVoMTMuNVoiLz48cGF0aCBkPSJNNyAxOC4yNWEuMjUuMjUgMCAwIDEgLjI1LS4yNWg1YS4yNS4yNSAwIDAgMSAuMjUuMjV2NS4wMWEuMjUuMjUgMCAwIDEtLjM5Ny4yMDFsLTIuMjA2LTEuNjA0YS4yNS4yNSAwIDAgMC0uMjk0IDBMNy4zOTcgMjMuNDZhLjI1LjI1IDAgMCAxLS4zOTctLjJ2LTUuMDFaIi8+PC9zdmc+;whiteSpace=wrap;" vertex="1" parent="1">
          <mxGeometry x="270" y="690" width="24" height="24" as="geometry" />
        </mxCell>
        <mxCell id="wm7MlkFv3_hdpK5SzSn3-67" style="edgeStyle=orthogonalEdgeStyle;shape=connector;curved=0;rounded=1;sketch=1;jiggle=2;curveFitting=1;orthogonalLoop=1;jettySize=auto;html=1;exitX=0.5;exitY=0;exitDx=0;exitDy=0;entryX=0;entryY=0.75;entryDx=0;entryDy=0;labelBackgroundColor=default;strokeColor=#839496;align=center;verticalAlign=middle;fontFamily=Helvetica;fontSize=11;fontColor=default;endArrow=classic;" edge="1" parent="1" source="wm7MlkFv3_hdpK5SzSn3-44" target="wm7MlkFv3_hdpK5SzSn3-61">
          <mxGeometry relative="1" as="geometry" />
        </mxCell>
        <mxCell id="wm7MlkFv3_hdpK5SzSn3-72" value="" style="shape=image;verticalLabelPosition=bottom;labelBackgroundColor=default;verticalAlign=top;aspect=fixed;imageAspect=0;image=data:image/svg+xml,PHN2ZyB4bWxucz0iaHR0cDovL3d3dy53My5vcmcvMjAwMC9zdmciIHZpZXdCb3g9IjAgMCAyNCAyNCIgaGVpZ2h0PSIyNCIgd2lkdGg9IjI0Ij48cGF0aCBkPSJNMSAzYTIgMiAwIDAgMSAyLTJoNi41YTIgMiAwIDAgMSAyIDJ2Ni41YTIgMiAwIDAgMS0yIDJIN3Y0LjA2M0M3IDE2LjM1NSA3LjY0NCAxNyA4LjQzOCAxN0gxMi41di0yLjVhMiAyIDAgMCAxIDItMkgyMWEyIDIgMCAwIDEgMiAyVjIxYTIgMiAwIDAgMS0yIDJoLTYuNWEyIDIgMCAwIDEtMi0ydi0yLjVIOC40MzdBMi45MzkgMi45MzkgMCAwIDEgNS41IDE1LjU2MlYxMS41SDNhMiAyIDAgMCAxLTItMlptMi0uNWEuNS41IDAgMCAwLS41LjV2Ni41YS41LjUgMCAwIDAgLjUuNWg2LjVhLjUuNSAwIDAgMCAuNS0uNVYzYS41LjUgMCAwIDAtLjUtLjVaTTE0LjUgMTRhLjUuNSAwIDAgMC0uNS41VjIxYS41LjUgMCAwIDAgLjUuNUgyMWEuNS41IDAgMCAwIC41LS41di02LjVhLjUuNSAwIDAgMC0uNS0uNVoiLz48L3N2Zz4=;" vertex="1" parent="1">
          <mxGeometry x="400" y="690" width="24" height="24" as="geometry" />
        </mxCell>
        <mxCell id="wm7MlkFv3_hdpK5SzSn3-76" style="edgeStyle=orthogonalEdgeStyle;shape=connector;curved=0;rounded=1;sketch=1;jiggle=2;curveFitting=1;orthogonalLoop=1;jettySize=auto;html=1;labelBackgroundColor=default;strokeColor=#839496;align=center;verticalAlign=middle;fontFamily=Helvetica;fontSize=11;fontColor=default;endArrow=classic;" edge="1" parent="1" source="wm7MlkFv3_hdpK5SzSn3-73" target="wm7MlkFv3_hdpK5SzSn3-75">
          <mxGeometry relative="1" as="geometry">
            <Array as="points">
              <mxPoint x="10" y="742" />
              <mxPoint x="10" y="1125" />
            </Array>
          </mxGeometry>
        </mxCell>
        <mxCell id="wm7MlkFv3_hdpK5SzSn3-73" value="" style="shape=image;verticalLabelPosition=bottom;labelBackgroundColor=default;verticalAlign=top;aspect=fixed;imageAspect=0;image=data:image/svg+xml,PHN2ZyB4bWxucz0iaHR0cDovL3d3dy53My5vcmcvMjAwMC9zdmciIHZpZXdCb3g9IjAgMCAyNCAyNCIgaGVpZ2h0PSIyNCIgd2lkdGg9IjI0Ij48cGF0aCBkPSJNMyAyLjc1QTIuNzUgMi43NSAwIDAgMSA1Ljc1IDBoMTQuNWEuNzUuNzUgMCAwIDEgLjc1Ljc1djIwLjVhLjc1Ljc1IDAgMCAxLS43NS43NWgtNmEuNzUuNzUgMCAwIDEgMC0xLjVoNS4yNXYtNEg2QTEuNSAxLjUgMCAwIDAgNC41IDE4di43NWMwIC43MTYuNDMgMS4zMzQgMS4wNSAxLjYwNWEuNzUuNzUgMCAwIDEtLjYgMS4zNzRBMy4yNTEgMy4yNTEgMCAwIDEgMyAxOC43NVpNMTkuNSAxLjVINS43NWMtLjY5IDAtMS4yNS41Ni0xLjI1IDEuMjV2MTIuNjUxQTIuOTg5IDIuOTg5IDAgMCAxIDYgMTVoMTMuNVoiLz48cGF0aCBkPSJNNyAxOC4yNWEuMjUuMjUgMCAwIDEgLjI1LS4yNWg1YS4yNS4yNSAwIDAgMSAuMjUuMjV2NS4wMWEuMjUuMjUgMCAwIDEtLjM5Ny4yMDFsLTIuMjA2LTEuNjA0YS4yNS4yNSAwIDAgMC0uMjk0IDBMNy4zOTcgMjMuNDZhLjI1LjI1IDAgMCAxLS4zOTctLjJ2LTUuMDFaIi8+PC9zdmc+;" vertex="1" parent="1">
          <mxGeometry x="60" y="730" width="24" height="24" as="geometry" />
        </mxCell>
        <mxCell id="wm7MlkFv3_hdpK5SzSn3-74" value="pull request" style="edgeStyle=isometricEdgeStyle;shape=connector;rounded=1;sketch=1;jiggle=2;curveFitting=1;orthogonalLoop=1;jettySize=auto;html=1;exitX=1;exitY=0.5;exitDx=0;exitDy=0;entryX=0.511;entryY=-0.032;entryDx=0;entryDy=0;entryPerimeter=0;labelBackgroundColor=none;strokeColor=#839496;align=center;verticalAlign=middle;fontFamily=Helvetica;fontSize=11;fontColor=default;endArrow=classic;jumpStyle=arc;jumpSize=44;" edge="1" parent="1" source="wm7MlkFv3_hdpK5SzSn3-61" target="wm7MlkFv3_hdpK5SzSn3-61">
          <mxGeometry x="-0.1547" y="-19" relative="1" as="geometry">
            <Array as="points">
              <mxPoint x="320" y="680" />
            </Array>
            <mxPoint x="5" y="3" as="offset" />
          </mxGeometry>
        </mxCell>
        <mxCell id="wm7MlkFv3_hdpK5SzSn3-79" style="edgeStyle=orthogonalEdgeStyle;shape=connector;curved=0;rounded=1;sketch=1;jiggle=2;curveFitting=1;orthogonalLoop=1;jettySize=auto;html=1;labelBackgroundColor=default;strokeColor=#839496;align=center;verticalAlign=middle;fontFamily=Helvetica;fontSize=11;fontColor=default;endArrow=classic;dashed=1;dashPattern=8 8;" edge="1" parent="1" source="wm7MlkFv3_hdpK5SzSn3-75" target="wm7MlkFv3_hdpK5SzSn3-77">
          <mxGeometry relative="1" as="geometry" />
        </mxCell>
        <mxCell id="wm7MlkFv3_hdpK5SzSn3-75" value="" style="shape=image;verticalLabelPosition=bottom;labelBackgroundColor=default;verticalAlign=top;aspect=fixed;imageAspect=0;image=data:image/svg+xml,PHN2ZyB4bWxucz0iaHR0cDovL3d3dy53My5vcmcvMjAwMC9zdmciIHZpZXdCb3g9IjAgMCAyNCAyNCIgaGVpZ2h0PSIyNCIgd2lkdGg9IjI0Ij48cGF0aCBkPSJNNC4zNzUuMzc1YTIuNSAyLjUgMCAwIDAtMi41IDIuNXYxNS4yNWEyLjUgMi41IDAgMCAwIDIuNSAyLjVoNS4xODdhLjc1Ljc1IDAgMSAwIDAtMS41SDQuMzc1YTEgMSAwIDAgMS0xLTF2LTEuNzVhMSAxIDAgMCAxIDEtMWg1LjY4N2EuNzUuNzUgMCAxIDAgMC0xLjVINC4zNzVjLS4zNTYgMC0uNjk0LjA3NC0xIC4yMDhWMi44NzVhMSAxIDAgMCAxIDEtMWgxMy4yNXY1LjI1YS43NS43NSAwIDAgMCAxLjUgMHYtNmEuNzUuNzUgMCAwIDAtLjc1LS43NWgtMTRaIi8+PHBhdGggZD0iTTEyLjM3NSAxMi4wODdjMC0xLjM5NiAxLjAwNS0yLjcxMiAyLjQ1Ni0yLjcxMmg4LjA0NGEuNzUuNzUgMCAwIDEgLjc1Ljc1djEyLjc1YS43NS43NSAwIDAgMS0uNzUuNzVoLTcuNWEzIDMgMCAwIDEtMy0zWm05Ljc1IDUuNTM4di02Ljc1aC03LjI5NGMtLjQzMyAwLS45NTYuNDQxLS45NTYgMS4yMTJ2NS45MzlhMi45ODkgMi45ODkgMCAwIDEgMS41LS40MDFabS04LjI1IDNhMS41IDEuNSAwIDAgMCAxLjUgMS41aDYuNzV2LTNoLTYuNzVhMS41IDEuNSAwIDAgMC0xLjUgMS41WiIvPjwvc3ZnPg==;" vertex="1" parent="1">
          <mxGeometry x="76" y="1113" width="24" height="24" as="geometry" />
        </mxCell>
        <mxCell id="wm7MlkFv3_hdpK5SzSn3-78" style="edgeStyle=orthogonalEdgeStyle;shape=connector;rounded=1;sketch=1;jiggle=2;curveFitting=1;orthogonalLoop=1;jettySize=auto;html=1;labelBackgroundColor=default;strokeColor=#839496;align=center;verticalAlign=middle;fontFamily=Helvetica;fontSize=11;fontColor=default;endArrow=classic;" edge="1" parent="1" source="wm7MlkFv3_hdpK5SzSn3-77" target="wm7MlkFv3_hdpK5SzSn3-73">
          <mxGeometry relative="1" as="geometry">
            <Array as="points">
              <mxPoint x="410" y="1116" />
              <mxPoint x="410" y="790" />
              <mxPoint x="72" y="790" />
            </Array>
          </mxGeometry>
        </mxCell>
        <mxCell id="wm7MlkFv3_hdpK5SzSn3-77" value="" style="shape=image;verticalLabelPosition=bottom;labelBackgroundColor=default;verticalAlign=top;aspect=fixed;imageAspect=0;image=data:image/svg+xml,PHN2ZyB4bWxucz0iaHR0cDovL3d3dy53My5vcmcvMjAwMC9zdmciIHZpZXdCb3g9IjAgMCAyNCAyNCIgaGVpZ2h0PSIyNCIgd2lkdGg9IjI0Ij48cGF0aCBkPSJNNC43NSAwQTIuNzUgMi43NSAwIDAgMCAyIDIuNzV2MTYuNUEyLjc1IDIuNzUgMCAwIDAgNC43NSAyMmgxMWEuNzUuNzUgMCAwIDAgMC0xLjVoLTExYy0uNjkgMC0xLjI1LS41Ni0xLjI1LTEuMjVWMThBMS41IDEuNSAwIDAgMSA1IDE2LjVoNy4yNWEuNzUuNzUgMCAwIDAgMC0xLjVINWMtLjU0NiAwLTEuMDU5LjE0Ni0xLjUuNDAxVjIuNzVjMC0uNjkuNTYtMS4yNSAxLjI1LTEuMjVIMTguNXY3YS43NS43NSAwIDAgMCAxLjUgMFYuNzVhLjc1Ljc1IDAgMCAwLS43NS0uNzVINC43NVoiLz48cGF0aCBkPSJtMjAgMTMuOTAzIDIuMjAyIDIuMzU5YS43NS43NSAwIDAgMCAxLjA5Ni0xLjAyNGwtMy41LTMuNzVhLjc1Ljc1IDAgMCAwLTEuMDk2IDBsLTMuNSAzLjc1YS43NS43NSAwIDEgMCAxLjA5NiAxLjAyNGwyLjIwMi0yLjM2djkuMzQ4YS43NS43NSAwIDAgMCAxLjUgMHYtOS4zNDdaIi8+PC9zdmc+;" vertex="1" parent="1">
          <mxGeometry x="340" y="1113" width="24" height="24" as="geometry" />
        </mxCell>
      </root>
    </mxGraphModel>
  </diagram>
</mxfile>
